<?xml version="1.0" encoding="iso-8859-1"?>
<!-- Generator: Adobe Illustrator 19.0.0, SVG Export Plug-In . SVG Version: 6.00 Build 0)  -->
<svg version="1.1" id="Layer_1" xmlns="http://www.w3.org/2000/svg" xmlns:xlink="http://www.w3.org/1999/xlink" x="0px" y="0px"
	 viewBox="0 0 309.142 309.142" style="enable-background:new 0 0 309.142 309.142;" xml:space="preserve">
<g>
	<path style="fill:#005CB9;" d="M154.571,0C69.662,0,0.83,68.831,0.83,153.741c0,38.283,13.997,73.295,37.147,100.207
		c-6.953,19.986-19.807,37.209-36.479,49.581c10.592,3.619,21.938,5.613,33.757,5.613c20.214,0,39.082-5.751,55.067-15.698
		c19.551,9.007,41.312,14.039,64.249,14.039c84.909,0,153.741-68.833,153.741-153.742C308.313,68.831,239.48,0,154.571,0z"/>
	<g>
		<g>
			<path style="fill:#FFFFFF;" d="M131.495,240.044h36.112c0,0,0-49.849,0-90.282h26.804l3.29-36.115h-28.7v-14.44
				c0-7.037,4.69-8.671,7.984-8.671c3.297,0,20.258,0,20.258,0V59.593l-27.895-0.113c-30.963,0-38.002,23.075-38.002,37.849v16.318
				H113.44v36.115h18.056C131.495,190.682,131.495,240.044,131.495,240.044z"/>
		</g>
	</g>
</g>
<g>
</g>
<g>
</g>
<g>
</g>
<g>
</g>
<g>
</g>
<g>
</g>
<g>
</g>
<g>
</g>
<g>
</g>
<g>
</g>
<g>
</g>
<g>
</g>
<g>
</g>
<g>
</g>
<g>
</g>
</svg>
